<svg xmlns="http://www.w3.org/2000/svg" style="display: none;">
    <symbol id="icon-bar-chart" viewBox="0 0 16 16">
			<path
				d="M12 13.3334V6.66669"
				stroke-width="1.5"
				stroke-linecap="round"
				stroke-linejoin="round"
			/>
			<path
				d="M8 13.3334V2.66669"
				stroke-width="1.5"
				stroke-linecap="round"
				stroke-linejoin="round"
			/>
			<path
				d="M4 13.3333V9.33331"
				stroke-width="1.5"
				stroke-linecap="round"
				stroke-linejoin="round"
			/>
    </symbol>

    <symbol id="icon-briefcase" viewBox="0 0 16 16">
			<path
				d="M13.3333 4.66669H2.66659C1.93021 4.66669 1.33325 5.26364 1.33325 6.00002V12.6667C1.33325 13.4031 1.93021 14 2.66659 14H13.3333C14.0696 14 14.6666 13.4031 14.6666 12.6667V6.00002C14.6666 5.26364 14.0696 4.66669 13.3333 4.66669Z"
				stroke-width="1.5"
				stroke-linecap="round"
				stroke-linejoin="round"
			/>
			<path
				d="M10.6666 14V3.33333C10.6666 2.97971 10.5261 2.64057 10.2761 2.39052C10.026 2.14048 9.68687 2 9.33325 2H6.66659C6.31296 2 5.97383 2.14048 5.72378 2.39052C5.47373 2.64057 5.33325 2.97971 5.33325 3.33333V14"
				stroke-width="1.5"
				stroke-linecap="round"
				stroke-linejoin="round"
			/>
    </symbol>

    <symbol id="icon-user" viewBox="0 0 16 16">
			<path
				d="M11.3334 14V12.6667C11.3334 11.9594 11.0525 11.2811 10.5524 10.781C10.0523 10.281 9.37399 10 8.66675 10H3.33341C2.62617 10 1.94789 10.281 1.4478 10.781C0.9477 11.2811 0.666748 11.9594 0.666748 12.6667V14"
				stroke-width="1.5"
				stroke-linecap="round"
				stroke-linejoin="round"
			/>
			<path
				d="M5.99992 7.33333C7.47268 7.33333 8.66659 6.13943 8.66659 4.66667C8.66659 3.19391 7.47268 2 5.99992 2C4.52716 2 3.33325 3.19391 3.33325 4.66667C3.33325 6.13943 4.52716 7.33333 5.99992 7.33333Z"
				stroke-width="1.5"
				stroke-linecap="round"
				stroke-linejoin="round"
			/>
			<path
				d="M15.3333 14V12.6667C15.3328 12.0758 15.1362 11.5019 14.7742 11.0349C14.4122 10.5679 13.9053 10.2344 13.3333 10.0867"
				stroke-width="1.5"
				stroke-linecap="round"
				stroke-linejoin="round"
			/>
			<path
				d="M10.6667 2.08667C11.2404 2.23354 11.7488 2.56714 12.1118 3.03488C12.4749 3.50262 12.672 4.07789 12.672 4.67C12.672 5.26212 12.4749 5.83739 12.1118 6.30513C11.7488 6.77287 11.2404 7.10647 10.6667 7.25334"
				stroke-width="1.5"
				stroke-linecap="round"
				stroke-linejoin="round"
			/>
    </symbol>

		<symbol id="icon-info" viewBox="0 0 16 16">
			<path
				d="M8.00004 14.6666C11.6819 14.6666 14.6667 11.6819 14.6667 7.99998C14.6667 4.31808 11.6819 1.33331 8.00004 1.33331C4.31814 1.33331 1.33337 4.31808 1.33337 7.99998C1.33337 11.6819 4.31814 14.6666 8.00004 14.6666Z"
				stroke-width="1.5"
				stroke-linecap="round"
				stroke-linejoin="round"
			/>
			<path
				d="M8 10.6667V8"
				stroke-width="1.5"
				stroke-linecap="round"
				stroke-linejoin="round"
			/>
			<path
				d="M8 5.33331H8.00667"
				stroke-width="1.5"
				stroke-linecap="round"
				stroke-linejoin="round"
			/>
		</symbol>

		<symbol id="icon-users" viewBox="0 0 16 16">
			<path
				d="M11.3333 14V12.6667C11.3333 11.9594 11.0523 11.2811 10.5522 10.781C10.0521 10.281 9.37387 10 8.66663 10H3.33329C2.62605 10 1.94777 10.281 1.44767 10.781C0.947578 11.2811 0.666626 11.9594 0.666626 12.6667V14"
				stroke-linecap="round"
				stroke-linejoin="round"
			/>
			<path
				d="M6.00004 7.33333C7.4728 7.33333 8.66671 6.13943 8.66671 4.66667C8.66671 3.19391 7.4728 2 6.00004 2C4.52728 2 3.33337 3.19391 3.33337 4.66667C3.33337 6.13943 4.52728 7.33333 6.00004 7.33333Z"
				stroke-linecap="round"
				stroke-linejoin="round"
			/>
			<path
				d="M15.3334 14V12.6667C15.3329 12.0758 15.1363 11.5019 14.7743 11.0349C14.4123 10.5679 13.9055 10.2344 13.3334 10.0867"
				stroke-linecap="round"
				stroke-linejoin="round"
			/>
			<path
				d="M10.6666 2.08667C11.2402 2.23354 11.7487 2.56714 12.1117 3.03488C12.4748 3.50262 12.6719 4.07789 12.6719 4.67C12.6719 5.26212 12.4748 5.83739 12.1117 6.30513C11.7487 6.77287 11.2402 7.10647 10.6666 7.25334"
				stroke-linecap="round"
				stroke-linejoin="round"
			/>
		</symbol>
</svg>
